<?xml version="1.0" encoding="UTF-8" standalone="no"?>
<!-- Created with Inkscape (http://www.inkscape.org/) -->

<svg
   xmlns:dc="http://purl.org/dc/elements/1.1/"
   xmlns:cc="http://creativecommons.org/ns#"
   xmlns:rdf="http://www.w3.org/1999/02/22-rdf-syntax-ns#"
   xmlns:svg="http://www.w3.org/2000/svg"
   xmlns="http://www.w3.org/2000/svg"
   xmlns:sodipodi="http://sodipodi.sourceforge.net/DTD/sodipodi-0.dtd"
   xmlns:inkscape="http://www.inkscape.org/namespaces/inkscape"
   width="47.625mm"
   height="47.624996mm"
   viewBox="0 0 47.625 47.624996"
   version="1.1"
   id="svg843"
   inkscape:version="0.92.4 5da689c313, 2019-01-14"
   sodipodi:docname="icon.svg"
   inkscape:export-filename="/home/bmansurov/workspace/kotiba/apple-touch-icon.png"
   inkscape:export-xdpi="96"
   inkscape:export-ydpi="96">
  <defs
     id="defs837" />
  <sodipodi:namedview
     id="base"
     pagecolor="#ffffff"
     bordercolor="#666666"
     borderopacity="1.0"
     inkscape:pageopacity="0.0"
     inkscape:pageshadow="2"
     inkscape:zoom="1"
     inkscape:cx="234.81942"
     inkscape:cy="77.512284"
     inkscape:document-units="mm"
     inkscape:current-layer="layer1"
     showgrid="false"
     fit-margin-top="0"
     fit-margin-left="0"
     fit-margin-right="0"
     fit-margin-bottom="0"
     inkscape:window-width="1276"
     inkscape:window-height="737"
     inkscape:window-x="0"
     inkscape:window-y="30"
     inkscape:window-maximized="0" />
  <metadata
     id="metadata840">
    <rdf:RDF>
      <cc:Work
         rdf:about="">
        <dc:format>image/svg+xml</dc:format>
        <dc:type
           rdf:resource="http://purl.org/dc/dcmitype/StillImage" />
        <dc:title></dc:title>
      </cc:Work>
    </rdf:RDF>
  </metadata>
  <g
     inkscape:label="Layer 1"
     inkscape:groupmode="layer"
     id="layer1"
     transform="translate(-49.202461,27.398057)">
    <rect
       style="fill:#ffff00;fill-opacity:0.25098039;stroke:none;stroke-width:0.52916664;stroke-linecap:square;stroke-linejoin:miter;stroke-miterlimit:4;stroke-dasharray:none;stroke-dashoffset:0;stroke-opacity:1;paint-order:stroke fill markers"
       id="rect888"
       width="19.084818"
       height="20.352869"
       x="63.516525"
       y="-25.130199" />
    <g
       transform="matrix(0.0930174,0,0,0.09909116,49.202461,-28.952893)"
       id="g12"
       style="fill:#b3b3b3;stroke-width:2.75589657">
      <polygon
         class="st0"
         points="193.621,190.18 193.621,190.344 318.442,190.344 318.442,176.988 193.621,176.988 193.621,190.141 "
         id="polygon4"
         style="fill:#e6e6e6;stroke-width:2.75589657" />
      <polygon
         class="st0"
         points="318.442,134.895 193.621,134.895 193.621,149.832 193.621,149.879 193.621,150.04 318.442,150.04 "
         id="polygon6"
         style="fill:#e6e6e6;stroke-width:2.75589657"
         transform="translate(0,-21.3608)" />
      <path
         inkscape:connector-curvature="0"
         class="st0"
         d="m 511.82,414.586 -0.003,-0.008 -77.348,-116.804 v -89.946 c 0,-9.656 -7.832,-17.485 -17.488,-17.485 H 380.649 V 60.801 c 0,-24.918 -20.192,-45.11 -45.11,-45.11 H 219.106 c -47.957,1.301 -86.39,39.734 -87.691,87.691 v 86.961 H 95 c -9.66,0 -17.488,7.829 -17.488,17.485 v 89.946 L 0.16,414.578 v 0.008 H 0.035 v 0.375 L 0,415.067 h 0.035 v 41.324 c 0,22.047 17.871,39.918 39.918,39.918 h 41.008 350.114 41.008 c 22.042,0 39.918,-17.87 39.918,-39.918 v -41.805 z m -410.605,-18.957 3.535,-23.554 h 29.546 l 3.664,0.019 -2.778,23.558 h -29.866 z m 5.808,-38.722 3.282,-21.875 h 28.492 l 3.527,0.019 -2.578,21.879 H 111.234 Z M 212.918,82.215 V 38.816 c 2.282,-0.328 4.641,-0.488 7,-0.57 H 335.54 c 12.457,0 22.554,10.016 22.554,22.555 v 129.542 28.985 24.645 H 153.886 v -24.645 -28.985 -84.437 c 0,-0.57 0,-1.141 0.082,-1.711 0.082,-2.359 0.242,-4.719 0.57,-7 h 43.394 c 8.228,0.001 14.986,-6.675 14.986,-14.98 z M 303.383,356.93 H 270.66 l -0.234,-21.898 h 32.024 l 0.906,21.222 z m -32.313,38.722 -0.25,-23.578 h 33.215 l 0.973,22.691 0.031,0.886 H 271.07 Z m -56.617,-0.008 1.012,-23.57 h 32.766 0.446 l -0.25,23.578 h -32.644 z m 1.661,-38.722 0.937,-21.89 h 31.598 0.426 l -0.234,21.898 h -31.168 z m -7.528,77.461 h 149.723 4.882 c 0,12.555 2.52344,22.734 -10.03156,22.734 H 318.703 167.86775 c -12.554,0 -8.50775,-10.179 -8.50775,-22.734 z m 153.066,-38.731 h -33.957 l -1.515,-23.578 h 33.21 l 2.09,21.644 z m -3.734,-38.722 h -32.71 l -1.41,-21.898 h 32.023 l 1.938,20.07 z m -162.219,-21.89 -1.406,21.89 h -29.781 l -2.946,-0.016 2.11,-21.882 h 30.141 z m -37.867,60.597 2.274,-23.562 h 31.254 l 1.961,0.007 -1.515,23.57 H 160.615 Z M 412.457,356.93 H 379.75 l -2.582,-21.898 h 32.027 l 2.879,19.207 z m 5.805,38.722 h -33.949 l -2.778,-23.578 h 33.215 l 3.098,20.664 z"
         id="path10"
         style="fill:#dbdee3;stroke-width:2.75589657"
         sodipodi:nodetypes="cccsscsscccsscccccccssccssccccccccccccccccsccssccccccscccsccccccccccccccccccccccccccccccscscccccccccccccccccccccccccccccccccccccccc" />
    </g>
  </g>
</svg>
