<?xml version="1.0" encoding="UTF-8" standalone="no"?>
<svg
   xmlns:dc="http://purl.org/dc/elements/1.1/"
   xmlns:cc="http://creativecommons.org/ns#"
   xmlns:rdf="http://www.w3.org/1999/02/22-rdf-syntax-ns#"
   xmlns:svg="http://www.w3.org/2000/svg"
   xmlns="http://www.w3.org/2000/svg"
   xmlns:sodipodi="http://sodipodi.sourceforge.net/DTD/sodipodi-0.dtd"
   xmlns:inkscape="http://www.inkscape.org/namespaces/inkscape"
   id="Layer_1"
   data-name="Layer 1"
   viewBox="0 0 50 50"
   version="1.1"
   sodipodi:docname="down-arrow.svg"
   inkscape:version="0.92.4 5da689c313, 2019-01-14"
   width="50"
   height="50">
  <metadata
     id="metadata13">
    <rdf:RDF>
      <cc:Work
         rdf:about="">
        <dc:format>image/svg+xml</dc:format>
        <dc:type
           rdf:resource="http://purl.org/dc/dcmitype/StillImage" />
        <dc:title>arrow-down-circle-glyph</dc:title>
      </cc:Work>
    </rdf:RDF>
  </metadata>
  <defs
     id="defs11" />
  <sodipodi:namedview
     pagecolor="#ffffff"
     bordercolor="#666666"
     borderopacity="1"
     objecttolerance="10"
     gridtolerance="10"
     guidetolerance="10"
     inkscape:pageopacity="0"
     inkscape:pageshadow="2"
     inkscape:window-width="1276"
     inkscape:window-height="737"
     id="namedview9"
     showgrid="false"
     inkscape:zoom="0.4609375"
     inkscape:cx="47.728816"
     inkscape:cy="256"
     inkscape:window-x="0"
     inkscape:window-y="30"
     inkscape:window-maximized="0"
     inkscape:current-layer="Layer_1"
     fit-margin-top="0"
     fit-margin-left="0"
     fit-margin-right="0"
     fit-margin-bottom="0" />
  <title
     id="title2">arrow-down-circle-glyph</title>
  <path
     d="M 25,47.65137 C 12.509766,47.65137 2.34375,37.49023 2.34375,25 2.34375,12.50977 12.504883,2.34375 25,2.34375 37.495117,2.34375 47.65625,12.50977 47.65625,25 47.65625,37.49023 37.490234,47.65137 25,47.65137 Z M 50,25 C 50,11.21582 38.785156,0 25,0 11.214844,0 0,11.21582 0,25 0,38.78418 11.214844,50 25,50 38.785156,50 50,38.78516 50,25 Z"
     id="path4"
     inkscape:connector-curvature="0"
     style="fill:#800000;stroke-width:1" />
  <polygon
     points="209.55,106.38 209.55,256.57 129.65,256.57 256,420.89 382.35,256.58 302.44,256.58 302.44,106.38 "
     id="polygon6"
     transform="scale(0.09765625)"
     style="fill:#800000;stroke-width:10.23999977" />
</svg>
