<?xml version="1.0" encoding="UTF-8" standalone="no"?>
<!-- Generator: Adobe Illustrator 19.0.0, SVG Export Plug-In . SVG Version: 6.00 Build 0)  -->

<svg
   xmlns:dc="http://purl.org/dc/elements/1.1/"
   xmlns:cc="http://creativecommons.org/ns#"
   xmlns:rdf="http://www.w3.org/1999/02/22-rdf-syntax-ns#"
   xmlns:svg="http://www.w3.org/2000/svg"
   xmlns="http://www.w3.org/2000/svg"
   xmlns:sodipodi="http://sodipodi.sourceforge.net/DTD/sodipodi-0.dtd"
   xmlns:inkscape="http://www.inkscape.org/namespaces/inkscape"
   version="1.1"
   id="Layer_1"
   x="0px"
   y="0px"
   viewBox="0 0 40.943603 37.895319"
   xml:space="preserve"
   sodipodi:docname="email.svg"
   width="40.943604"
   height="37.895321"
   inkscape:version="0.92.4 5da689c313, 2019-01-14"><metadata
   id="metadata27"><rdf:RDF><cc:Work
       rdf:about=""><dc:format>image/svg+xml</dc:format><dc:type
         rdf:resource="http://purl.org/dc/dcmitype/StillImage" /><dc:title></dc:title></cc:Work></rdf:RDF></metadata><defs
   id="defs25" /><sodipodi:namedview
   pagecolor="#ffffff"
   bordercolor="#666666"
   borderopacity="1"
   objecttolerance="10"
   gridtolerance="10"
   guidetolerance="10"
   inkscape:pageopacity="0"
   inkscape:pageshadow="2"
   inkscape:window-width="1276"
   inkscape:window-height="737"
   id="namedview23"
   showgrid="false"
   fit-margin-top="0"
   fit-margin-left="0"
   fit-margin-right="0"
   fit-margin-bottom="0"
   inkscape:zoom="3.1978319"
   inkscape:cx="-5.464617"
   inkscape:cy="6.9410258"
   inkscape:window-x="0"
   inkscape:window-y="30"
   inkscape:window-maximized="0"
   inkscape:current-layer="Layer_1" />
<style
   type="text/css"
   id="style2">
	.st0{fill:#010101;}
	.st1{fill:#FFFFFF;}
	.st2{fill:#93C13E;}
</style>
<path
   class="st0"
   d="M 20.189672,36.395323 H 4.2184978 C 2.4061659,36.395323 1.5,35.640206 1.5,34.224363 c 0,-5.568984 0,-11.137968 0,-16.801342 0,-0.566337 0.2265415,-1.038285 0.6796245,-1.415844 1.0194366,-0.943895 2.1521441,-1.887791 3.1715808,-2.831687 0.2265415,-0.188778 0.3398122,-0.471947 0.3398122,-0.660726 0.1132707,-0.471948 0,-0.943896 0.1132707,-1.321454 0.2265415,-1.038285 1.359249,-1.8877923 2.6052275,-1.7934023 1.1327069,0.09439 1.9256023,-0.377558 2.6052263,-1.038285 2.265416,-2.076571 4.644101,-4.058752 6.909516,-6.040932 1.359249,-1.1326746 3.171581,-1.1326746 4.417559,0 2.718497,2.265349 5.210454,4.436309 7.815681,6.701659 0.226541,0.188779 0.453083,0.283168 0.792895,0.283168 0.453084,0.09439 1.019437,0 1.47252,0.09439 1.245978,0.188779 2.265415,1.1326753 2.152144,2.2653493 -0.113271,0.943896 0.339813,1.699013 1.132707,2.26535 0.906167,0.660728 1.585791,1.321454 2.378686,2.07657 0.453083,0.377559 0.679625,0.849507 0.679625,1.415844 0,5.663374 0,11.326748 0,16.990121 0,1.227064 -1.019437,1.982181 -2.378686,1.982181 -5.323725,0 -10.760721,0 -16.197717,0 m 0,-25.86274 c -2.491956,0 -4.870641,0 -7.362598,0 -1.359248,0 -2.718497,0 -4.1910171,0 -0.906166,0 -1.4725197,0.471948 -1.4725197,1.227064 0,2.359739 0,4.719479 0,7.079217 0,0.18878 0.1132707,0.377559 0.2265415,0.471948 1.019437,0.660727 2.1521439,1.321454 3.1715803,1.982181 3.058311,1.887791 6.00335,3.775582 9.06166,5.568984 0.339812,0.188779 0.566353,0.188779 0.906166,0 3.964476,-2.454128 7.928952,-4.908257 11.893428,-7.362386 0.453083,-0.283168 0.679625,-0.566337 0.679625,-1.038285 0,-2.170959 0,-4.24753 0,-6.41849 0,-1.132675 -0.453084,-1.510233 -1.812332,-1.510233 -3.624664,0 -7.362599,0 -11.100534,0 M 4.4450393,35.073869 H 35.934306 C 31.630018,32.242183 27.439,29.504885 23.247983,26.767587 c -0.906166,0.566337 -1.812332,1.132675 -2.718498,1.699013 -0.339813,0.188779 -0.453083,0.188779 -0.792896,0 -0.906165,-0.566338 -1.812331,-1.132676 -2.718497,-1.699013 -4.077747,2.831687 -8.2687648,5.568985 -12.5730527,8.306282 M 15.885384,26.012471 C 11.581097,23.369563 7.3900787,20.726656 3.0857904,18.083748 V 34.413142 C 7.3900787,31.581455 11.581097,28.844158 15.885384,26.012471 m 8.608577,0 c 4.304288,2.831687 8.495306,5.568984 12.799594,8.400671 V 18.083748 c -4.304288,2.642908 -8.495306,5.285815 -12.799594,7.928723 M 28.345166,9.3055177 c -0.113271,-0.09439 -0.113271,-0.188779 -0.113271,-0.188779 -2.265414,-1.982181 -4.6441,-3.964362 -6.909515,-5.946542 -0.679624,-0.5663378 -1.47252,-0.5663378 -2.152144,0 -2.265415,1.98218 -4.53083,3.869972 -6.796245,5.852153 -0.11327,0.09439 -0.226541,0.188779 -0.339812,0.283168 z M 3.3123319,16.667905 c 0.7928952,0.471947 1.5857904,0.943895 2.2654149,1.415843 v -3.114856 c -0.5663537,0.566337 -1.359249,1.132675 -2.2654149,1.699013 M 34.688328,14.780113 v 3.398025 c 0.792895,-0.471949 1.472519,-0.943896 2.265415,-1.415844 -0.679625,-0.660727 -1.47252,-1.321454 -2.265415,-1.982181"
   id="path4"
   inkscape:connector-curvature="0"
   style="fill:#010101;stroke:#000000;stroke-width:3;stroke-miterlimit:4;stroke-dasharray:none;stroke-opacity:1" />
<path
   class="st1"
   d="m 20.189672,10.532583 h 11.213805 c 1.359248,0 1.812331,0.377558 1.812331,1.510233 0,2.17096 0,4.247531 0,6.41849 0,0.471948 -0.226541,0.755117 -0.679625,1.038285 -3.964475,2.454129 -7.928951,4.908258 -11.893427,7.362386 -0.339813,0.188779 -0.566354,0.188779 -0.906167,0 C 16.67828,24.974186 13.73324,23.086395 10.67493,21.292993 9.6554935,20.632266 8.522786,19.971539 7.3900787,19.310812 7.2768079,19.216423 7.1635372,19.027643 7.1635372,18.838864 c 0,-2.359738 0,-4.719478 0,-7.079217 0,-0.755116 0.5663537,-1.132674 1.4725197,-1.227064 1.3592488,0 2.7184981,0 4.1910171,0 2.491957,0 4.983913,0 7.362598,0 m 6.229892,9.344566 c -0.339812,0 -0.679625,0 -0.906167,0 -0.453083,0 -0.679624,0 -1.019436,0.283169 -0.339812,0.283169 -0.792896,0.566338 -1.245978,0.755117 -1.35925,0.566337 -2.831769,0.566337 -4.417559,0.283168 -0.792896,-0.188779 -1.58579,-0.377558 -2.152144,-0.943895 -1.132708,-0.943896 -1.245978,-2.17096 -1.019437,-3.398024 0.566353,-2.926077 4.757371,-4.34192 7.58914,-2.642908 1.019437,0.660727 1.472519,1.510233 1.359249,2.642908 -0.113271,1.132674 -0.906167,1.887791 -2.265415,2.265349 0.226541,-1.604622 0.792895,-3.020466 1.132707,-4.625088 -0.566353,0.283168 -1.359249,-0.377559 -1.812332,0.471947 -0.566353,-0.377557 -1.245978,-0.660726 -2.038873,-0.566337 -2.265415,0.283169 -4.077747,3.020466 -2.491956,5.002646 0.453083,0.566338 1.472519,0.943897 2.265414,0.755117 0.453083,-0.09439 0.906166,-0.283169 1.35925,-0.471948 0.339812,0.566338 1.019436,0.660728 1.699061,0.566338 1.58579,-0.188779 2.605226,-1.132675 3.284851,-2.35974 0.679625,-1.510232 0.339813,-3.114855 -1.019437,-4.24753 -1.925602,-1.604622 -5.663537,-1.793401 -7.928952,-0.377558 -1.925602,1.227065 -2.718498,2.926077 -2.491956,4.908258 0.113271,1.887791 1.359249,3.114855 3.398122,3.775582 1.699061,0.566338 3.511393,0.566338 5.323725,0.188779 1.359249,-0.188779 2.605227,-0.943896 3.398123,-2.26535"
   id="path6"
   inkscape:connector-curvature="0"
   style="fill:#ffffff;stroke-width:0.99999994" />
<path
   class="st1"
   d="m 6.0464612,35.211202 c 3.8575061,-2.53776 7.6134998,-4.990928 11.3694928,-7.444095 0.812107,0.507551 1.624214,1.015103 2.43632,1.522655 0.304539,0.169184 0.507567,0.169184 0.710592,0 0.812108,-0.507552 1.5227,-1.015104 2.43632,-1.522655 3.755993,2.453167 7.511987,4.906335 11.369493,7.444095 z"
   id="path8"
   inkscape:connector-curvature="0"
   style="fill:#ffffff;stroke-width:0.99999994" />


<path
   class="st1"
   d="M 26.468271,8.8192237 H 13.797805 c 0.08799,-0.07332 0.175979,-0.146645 0.263968,-0.219968 1.759788,-1.539769 3.519573,-3.006216 5.279361,-4.545985 0.527936,-0.439934 1.143862,-0.439934 1.671798,0 1.759786,1.539769 3.607562,3.079538 5.367349,4.619308 0,0 0,0.07332 0.08799,0.146645"
   id="path14"
   inkscape:connector-curvature="0"
   style="fill:#ffffff;stroke-width:0.99999994" />
<path
   class="st1"
   d="M 3.3123319,16.667905 C 4.1052271,16.007177 4.8981223,15.44084 5.5777468,14.968892 v 3.114856 C 4.8981223,17.706189 4.2184978,17.234242 3.3123319,16.667905"
   id="path16"
   inkscape:connector-curvature="0"
   style="fill:#ffffff;stroke-width:0.99999994" />
<path
   class="st1"
   d="m 34.688328,14.780113 c 0.792895,0.660727 1.58579,1.321454 2.265415,1.982181 -0.792896,0.471948 -1.47252,0.943895 -2.265415,1.415844 z"
   id="path18"
   inkscape:connector-curvature="0"
   style="fill:#ffffff;stroke-width:0.99999994" />
<path
   class="st2"
   d="m 26.419564,19.877149 c -0.792896,1.321454 -2.038874,2.076571 -3.624664,2.454129 -1.812332,0.377559 -3.624664,0.377559 -5.323725,-0.188779 -2.038873,-0.660727 -3.171581,-1.887791 -3.398123,-3.775582 -0.226541,-1.982181 0.566354,-3.681193 2.491957,-4.908258 2.265415,-1.415843 6.003349,-1.227064 7.928952,0.377558 1.359249,1.132675 1.699061,2.831687 1.019436,4.247531 -0.566353,1.227064 -1.58579,2.07657 -3.284851,2.359739 -0.679625,0.09439 -1.359249,0.09439 -1.699061,-0.566338 -0.453083,0.18878 -0.906166,0.377559 -1.359249,0.471949 -0.792895,0.188778 -1.812332,-0.18878 -2.265415,-0.755117 -1.472519,-1.982181 0.226542,-4.719478 2.491956,-5.002646 0.792895,-0.09439 1.47252,0.188778 2.038874,0.566337 0.339812,-0.849507 1.132707,-0.18878 1.812332,-0.471948 -0.339812,1.604623 -0.906166,3.020465 -1.132708,4.625088 1.47252,-0.471948 2.152145,-1.227064 2.265415,-2.265349 0.226542,-1.038286 -0.339812,-1.982181 -1.359249,-2.642908 -2.831769,-1.699012 -7.022786,-0.283169 -7.589139,2.642908 -0.226542,1.227064 0,2.454128 1.019436,3.398024 0.566354,0.566337 1.359249,0.755116 2.152144,0.943895 1.47252,0.283169 2.945039,0.283169 4.417559,-0.283169 0.453083,-0.188778 0.906166,-0.471947 1.245979,-0.755115 0.339812,-0.283169 0.566353,-0.377559 1.019436,-0.283169 0.453083,-0.18878 0.792896,-0.18878 1.132708,-0.18878 m -5.210455,-2.737297 c 0,-0.755116 -0.226541,-1.227065 -0.679624,-1.321454 -0.453083,-0.188779 -0.906166,-0.09439 -1.359249,0.188779 -0.906166,0.660727 -1.132708,1.604623 -0.906166,2.548519 0.113271,0.660727 0.906166,1.038285 1.699061,0.566337 0.792896,-0.566337 1.132708,-1.321454 1.245978,-1.982181"
   id="path20"
   inkscape:connector-curvature="0"
   style="fill:#000080;stroke-width:0.99999994" />
</svg>