<?xml version="1.0" encoding="UTF-8" standalone="no"?>
<svg
   xmlns:dc="http://purl.org/dc/elements/1.1/"
   xmlns:cc="http://creativecommons.org/ns#"
   xmlns:rdf="http://www.w3.org/1999/02/22-rdf-syntax-ns#"
   xmlns:svg="http://www.w3.org/2000/svg"
   xmlns="http://www.w3.org/2000/svg"
   xmlns:sodipodi="http://sodipodi.sourceforge.net/DTD/sodipodi-0.dtd"
   xmlns:inkscape="http://www.inkscape.org/namespaces/inkscape"
   id="Layer_1"
   data-name="Layer 1"
   viewBox="0 0 50 50"
   version="1.1"
   sodipodi:docname="right-arrow.svg"
   width="50"
   height="50"
   inkscape:version="0.92.4 5da689c313, 2019-01-14">
  <metadata
     id="metadata13">
    <rdf:RDF>
      <cc:Work
         rdf:about="">
        <dc:format>image/svg+xml</dc:format>
        <dc:type
           rdf:resource="http://purl.org/dc/dcmitype/StillImage" />
        <dc:title>arrow-right-circle-glyph</dc:title>
      </cc:Work>
    </rdf:RDF>
  </metadata>
  <defs
     id="defs11" />
  <sodipodi:namedview
     pagecolor="#ffffff"
     bordercolor="#666666"
     borderopacity="1"
     objecttolerance="10"
     gridtolerance="10"
     guidetolerance="10"
     inkscape:pageopacity="0"
     inkscape:pageshadow="2"
     inkscape:window-width="1276"
     inkscape:window-height="737"
     id="namedview9"
     showgrid="false"
     fit-margin-top="0"
     fit-margin-left="0"
     fit-margin-right="0"
     fit-margin-bottom="0"
     inkscape:zoom="1.84375"
     inkscape:cx="126.26225"
     inkscape:cy="64"
     inkscape:window-x="0"
     inkscape:window-y="30"
     inkscape:window-maximized="0"
     inkscape:current-layer="Layer_1" />
  <title
     id="title2">arrow-right-circle-glyph</title>
  <path
     d="m 47.651367,25 c 0,12.48926 -10.162109,22.65039 -22.65625,22.65039 C 12.500977,47.65039 2.3486328,37.48926 2.3486328,25 2.3486328,12.51074 12.508789,2.34961 25,2.34961 37.491211,2.34961 47.651367,12.51074 47.651367,25 Z M 25,0 C 11.214844,0 0,11.21582 0,25 0,38.78418 11.214844,50 25,50 38.785156,50 50,38.78516 50,25 50,11.21484 38.785156,0 25,0 Z"
     id="path4"
     inkscape:connector-curvature="0"
     style="fill:#800000;stroke-width:1" />
  <polygon
     points="106.37,302.45 256.57,302.45 256.57,382.35 420.88,256 256.57,129.66 256.57,209.57 106.37,209.57 "
     id="polygon6"
     transform="scale(0.09765625)"
     style="fill:#800000;stroke-width:10.23999977" />
</svg>
